<?xml version="1.0" encoding="UTF-8"?>
<svg xmlns="http://www.w3.org/2000/svg" xmlns:xlink="http://www.w3.org/1999/xlink" width="100px" height="100px" viewBox="0 0 100 100" version="1.1">
<g id="surface1">
<path style=" stroke:none;fill-rule:nonzero;fill:rgb(100%,100%,100%);fill-opacity:1;" d="M 12.941406 5.40625 C 8.792969 5.40625 5.429688 8.769531 5.429688 12.917969 L 5.429688 87.082031 C 5.429688 91.234375 8.792969 94.59375 12.941406 94.59375 L 87.105469 94.59375 C 91.253906 94.59375 94.617188 91.234375 94.617188 87.082031 L 94.617188 12.917969 C 94.617188 8.769531 91.253906 5.40625 87.105469 5.40625 Z M 12.941406 5.40625 "/>
<path style=" stroke:none;fill-rule:nonzero;fill:rgb(29.019608%,29.019608%,28.627451%);fill-opacity:1;" d="M 47.851562 25.292969 L 14.476562 25.292969 L 14.476562 35.160156 L 32.410156 35.160156 L 13.359375 76.773438 L 49.398438 76.773438 L 49.398438 66.90625 L 28.460938 66.90625 Z M 47.851562 25.292969 "/>
<path style=" stroke:none;fill-rule:nonzero;fill:rgb(29.019608%,29.019608%,28.627451%);fill-opacity:1;" d="M 53.074219 54.296875 L 53.074219 76.773438 L 62.855469 76.773438 L 62.855469 53.523438 C 62.855469 53.523438 66.199219 46.144531 71.433594 46.144531 C 75.726562 46.144531 76.238281 49.574219 76.238281 52.75 L 76.238281 76.773438 L 86.019531 76.773438 L 86.019531 48.117188 C 86.019531 40.824219 79.84375 35.847656 72.808594 35.847656 C 65.945312 35.847656 59.765625 42.195312 59.765625 42.195312 C 59.765625 42.195312 56.675781 37.734375 54.789062 36.363281 L 46.550781 41.253906 C 51.011719 44.683594 53.074219 48.632812 53.074219 54.296875 "/>
<path style=" stroke:none;fill-rule:nonzero;fill:rgb(0%,0%,0%);fill-opacity:1;" d="M 95.257812 25.933594 L 60.355469 25.96875 C 56.015625 25.941406 53.042969 22.082031 53.039062 18.800781 L 53.03125 5.402344 L 95.257812 5.402344 Z M 95.257812 25.933594 "/>
<path style=" stroke:none;fill-rule:nonzero;fill:rgb(100%,100%,100%);fill-opacity:1;" d="M 63.460938 21.859375 L 65.570312 21.859375 L 67.816406 13.855469 L 68.886719 22.058594 L 71.191406 21.71875 L 68.964844 9.914062 L 66.859375 9.914062 L 64.515625 18.511719 L 62.175781 9.914062 L 60.066406 9.914062 L 57.839844 21.71875 L 60.144531 22.058594 L 61.21875 13.855469 Z M 63.460938 21.859375 "/>
<path style=" stroke:none;fill-rule:evenodd;fill:rgb(100%,100%,100%);fill-opacity:1;" d="M 74.875 12.699219 L 72.613281 12.699219 L 72.613281 21.859375 L 74.875 21.859375 Z M 75.089844 9.832031 C 75.089844 9.078125 74.484375 8.460938 73.746094 8.460938 C 73.003906 8.460938 72.398438 9.078125 72.398438 9.832031 C 72.398438 10.589844 73.003906 11.207031 73.746094 11.207031 C 74.484375 11.207031 75.089844 10.589844 75.089844 9.832031 "/>
<path style=" stroke:none;fill-rule:nonzero;fill:rgb(100%,100%,100%);fill-opacity:1;" d="M 78.148438 16.640625 L 78.148438 21.859375 L 80.375 21.859375 L 80.375 16.460938 C 80.375 16.460938 81.136719 14.75 82.324219 14.75 C 83.300781 14.75 83.417969 15.546875 83.417969 16.285156 L 83.417969 21.859375 L 85.644531 21.859375 L 85.644531 15.207031 C 85.644531 13.515625 84.238281 12.359375 82.636719 12.359375 C 81.078125 12.359375 79.671875 13.835938 79.671875 13.835938 C 79.671875 13.835938 78.96875 12.800781 78.539062 12.480469 L 76.664062 13.617188 C 77.679688 14.414062 78.148438 15.328125 78.148438 16.640625 "/>
<path style=" stroke:none;fill-rule:evenodd;fill:rgb(100%,100%,100%);fill-opacity:1;" d="M 90.363281 12.699219 L 88.101562 12.699219 L 88.101562 21.859375 L 90.363281 21.859375 Z M 90.578125 9.832031 C 90.578125 9.078125 89.972656 8.460938 89.234375 8.460938 C 88.492188 8.460938 87.886719 9.078125 87.886719 9.832031 C 87.886719 10.589844 88.492188 11.207031 89.234375 11.207031 C 89.972656 11.207031 90.578125 10.589844 90.578125 9.832031 "/>
<path style=" stroke:none;fill-rule:nonzero;fill:rgb(7.843137%,56.862745%,92.156863%);fill-opacity:1;" d="M 12.941406 5.40625 C 8.792969 5.40625 5.429688 8.769531 5.429688 12.917969 L 5.429688 87.082031 C 5.429688 91.234375 8.792969 94.59375 12.941406 94.59375 L 87.105469 94.59375 C 91.253906 94.59375 94.617188 91.234375 94.617188 87.082031 L 94.617188 12.917969 C 94.617188 8.769531 91.253906 5.40625 87.105469 5.40625 Z M 12.941406 0 L 87.105469 0 C 94.242188 0 100.023438 5.785156 100.023438 12.917969 L 100.023438 87.082031 C 100.023438 94.21875 94.242188 100 87.105469 100 L 12.941406 100 C 5.808594 100 0.0234375 94.21875 0.0234375 87.082031 L 0.0234375 12.917969 C 0.0234375 5.785156 5.808594 0 12.941406 0 "/>
</g>
</svg>
