<?xml version="1.0" encoding="UTF-8"?>
<svg xmlns="http://www.w3.org/2000/svg" xmlns:xlink="http://www.w3.org/1999/xlink" width="200px" height="200px" viewBox="0 0 200 200" version="1.1">
<g id="surface1">
<path style=" stroke:none;fill-rule:nonzero;fill:rgb(100%,100%,100%);fill-opacity:1;" d="M 25.882812 10.8125 C 17.585938 10.8125 10.859375 17.539062 10.859375 25.835938 L 10.859375 174.167969 C 10.859375 182.464844 17.585938 189.191406 25.882812 189.191406 L 174.210938 189.191406 C 182.511719 189.191406 189.238281 182.464844 189.238281 174.167969 L 189.238281 25.835938 C 189.238281 17.539062 182.511719 10.8125 174.210938 10.8125 Z M 25.882812 10.8125 "/>
<path style=" stroke:none;fill-rule:nonzero;fill:rgb(29.019608%,29.019608%,28.627451%);fill-opacity:1;" d="M 95.703125 50.585938 L 28.953125 50.585938 L 28.953125 70.320312 L 64.816406 70.320312 L 26.722656 153.550781 L 98.796875 153.550781 L 98.796875 133.816406 L 56.921875 133.816406 Z M 95.703125 50.585938 "/>
<path style=" stroke:none;fill-rule:nonzero;fill:rgb(29.019608%,29.019608%,28.627451%);fill-opacity:1;" d="M 106.144531 108.589844 L 106.144531 153.550781 L 125.707031 153.550781 L 125.707031 107.046875 C 125.707031 107.046875 132.398438 92.289062 142.867188 92.289062 C 151.449219 92.289062 152.476562 99.148438 152.476562 105.5 L 152.476562 153.550781 L 172.039062 153.550781 L 172.039062 96.234375 C 172.039062 81.648438 159.683594 71.695312 145.613281 71.695312 C 131.886719 71.695312 119.53125 84.394531 119.53125 84.394531 C 119.53125 84.394531 113.351562 75.46875 109.578125 72.726562 L 93.105469 82.507812 C 102.027344 89.371094 106.144531 97.265625 106.144531 108.589844 "/>
<path style=" stroke:none;fill-rule:nonzero;fill:rgb(0%,0%,0%);fill-opacity:1;" d="M 190.515625 51.867188 L 120.714844 51.941406 C 112.03125 51.878906 106.085938 44.164062 106.082031 37.601562 L 106.066406 10.800781 L 190.515625 10.800781 Z M 190.515625 51.867188 "/>
<path style=" stroke:none;fill-rule:nonzero;fill:rgb(100%,100%,100%);fill-opacity:1;" d="M 126.925781 43.71875 L 131.140625 43.71875 L 135.628906 27.710938 L 137.777344 44.113281 L 142.382812 43.4375 L 137.933594 19.824219 L 133.71875 19.824219 L 129.03125 37.027344 L 124.347656 19.824219 L 120.132812 19.824219 L 115.683594 43.4375 L 120.289062 44.113281 L 122.4375 27.710938 Z M 126.925781 43.71875 "/>
<path style=" stroke:none;fill-rule:evenodd;fill:rgb(100%,100%,100%);fill-opacity:1;" d="M 149.753906 25.398438 L 145.226562 25.398438 L 145.226562 43.71875 L 149.753906 43.71875 Z M 150.183594 19.664062 C 150.183594 18.152344 148.972656 16.917969 147.488281 16.917969 C 146.007812 16.917969 144.796875 18.152344 144.796875 19.664062 C 144.796875 21.179688 146.007812 22.414062 147.488281 22.414062 C 148.972656 22.414062 150.183594 21.179688 150.183594 19.664062 "/>
<path style=" stroke:none;fill-rule:nonzero;fill:rgb(100%,100%,100%);fill-opacity:1;" d="M 156.296875 33.285156 L 156.296875 43.71875 L 160.746094 43.71875 L 160.746094 32.925781 C 160.746094 32.925781 162.273438 29.5 164.652344 29.5 C 166.605469 29.5 166.839844 31.09375 166.839844 32.566406 L 166.839844 43.71875 L 171.289062 43.71875 L 171.289062 30.417969 C 171.289062 27.03125 168.476562 24.722656 165.277344 24.722656 C 162.152344 24.722656 159.34375 27.667969 159.34375 27.667969 C 159.34375 27.667969 157.9375 25.597656 157.078125 24.960938 L 153.332031 27.230469 C 155.363281 28.824219 156.296875 30.65625 156.296875 33.285156 "/>
<path style=" stroke:none;fill-rule:evenodd;fill:rgb(100%,100%,100%);fill-opacity:1;" d="M 180.726562 25.398438 L 176.199219 25.398438 L 176.199219 43.71875 L 180.726562 43.71875 Z M 181.160156 19.664062 C 181.160156 18.152344 179.949219 16.917969 178.464844 16.917969 C 176.980469 16.917969 175.769531 18.152344 175.769531 19.664062 C 175.769531 21.179688 176.980469 22.414062 178.464844 22.414062 C 179.949219 22.414062 181.160156 21.179688 181.160156 19.664062 "/>
<path style=" stroke:none;fill-rule:nonzero;fill:rgb(7.843137%,56.862745%,92.156863%);fill-opacity:1;" d="M 25.882812 10.8125 C 17.585938 10.8125 10.859375 17.539062 10.859375 25.835938 L 10.859375 174.167969 C 10.859375 182.464844 17.585938 189.191406 25.882812 189.191406 L 174.210938 189.191406 C 182.511719 189.191406 189.238281 182.464844 189.238281 174.167969 L 189.238281 25.835938 C 189.238281 17.539062 182.511719 10.8125 174.210938 10.8125 Z M 25.882812 0 L 174.210938 0 C 188.484375 0 200.050781 11.566406 200.050781 25.835938 L 200.050781 174.167969 C 200.050781 188.4375 188.484375 200 174.210938 200 L 25.882812 200 C 11.613281 200 0.046875 188.4375 0.046875 174.167969 L 0.046875 25.835938 C 0.046875 11.566406 11.613281 0 25.882812 0 "/>
</g>
</svg>
